<?xml version="1.0" standalone="no"?>
<!DOCTYPE svg PUBLIC "-//W3C//DTD SVG 20010904//EN"
 "http://www.w3.org/TR/2001/REC-SVG-20010904/DTD/svg10.dtd">
<svg version="1.0" xmlns="http://www.w3.org/2000/svg"
 width="636.000000pt" height="646.000000pt" viewBox="0 0 636.000000 646.000000"
 preserveAspectRatio="xMidYMid meet">
<metadata>
Created by potrace 1.16, written by Peter Selinger 2001-2019
</metadata>
<g transform="translate(0.000000,646.000000) scale(0.100000,-0.100000)"
fill="#3a3a3a" stroke="none">
<path d="M4021 4446 c-54 -18 -148 -82 -156 -106 -3 -9 -3 -24 1 -33 4 -10
-16 -41 -58 -90 -121 -142 -207 -279 -345 -552 -70 -137 -108 -220 -190 -414
-8 -18 -16 -31 -19 -29 -3 4 26 105 43 148 3 8 7 20 7 25 1 6 13 29 28 52 15
23 32 61 37 83 5 23 16 49 23 58 8 9 21 33 28 52 8 19 22 46 32 59 10 13 18
32 18 41 0 10 7 23 15 30 8 7 15 19 15 28 0 9 9 26 21 38 11 12 21 29 23 37 1
9 10 25 20 36 10 11 15 25 11 31 -4 7 -1 16 6 21 8 4 14 16 14 26 0 10 5 18
12 18 41 0 13 46 -82 136 -65 61 -162 119 -199 119 -9 0 -27 18 -40 39 -51 80
-148 128 -237 118 -86 -10 -210 -94 -195 -132 3 -10 11 -13 18 -9 7 5 -8 -15
-33 -43 -56 -63 -153 -204 -205 -298 -21 -38 -93 -180 -161 -315 -67 -135
-123 -238 -123 -229 0 9 14 46 30 82 17 37 30 71 30 77 0 6 10 24 21 40 12 16
19 35 16 44 -3 8 0 20 8 26 8 6 11 19 8 27 -4 11 -2 14 5 9 16 -10 29 24 23
58 -5 24 -16 32 -71 54 -36 15 -69 33 -74 42 -21 34 -83 81 -120 91 -56 15
-110 -4 -142 -50 -20 -29 -22 -38 -11 -45 12 -7 12 -17 2 -55 -7 -25 -20 -113
-30 -196 -49 -437 -201 -1397 -227 -1434 -7 -10 -17 -18 -23 -17 -17 2 -17
-55 0 -100 18 -48 70 -99 123 -121 21 -8 60 -13 98 -12 57 2 68 -1 92 -23 15
-15 56 -43 92 -63 36 -20 80 -46 99 -57 22 -14 59 -24 110 -28 42 -4 80 -3 86
2 5 4 28 8 50 8 35 0 47 6 76 37 57 63 80 103 83 147 1 22 13 59 26 81 14 22
25 53 26 70 6 101 23 206 40 243 10 23 23 42 27 42 5 0 34 -23 65 -50 56 -50
124 -80 182 -80 15 0 36 -11 50 -25 24 -26 196 -115 222 -115 9 0 31 -6 49
-14 24 -10 59 -12 114 -9 46 3 84 10 90 17 6 7 18 15 28 19 9 4 21 17 26 29 5
13 12 21 16 18 5 -3 18 23 30 57 12 35 25 66 28 70 4 3 7 16 7 29 0 29 31 66
47 56 7 -4 24 -51 37 -104 31 -120 65 -194 120 -255 58 -65 126 -100 215 -113
55 -8 82 -18 121 -45 58 -41 186 -103 230 -112 17 -3 33 -10 36 -14 3 -5 42
-9 87 -9 57 0 89 5 104 15 12 8 36 17 53 19 18 1 37 11 42 21 6 9 19 26 29 36
23 23 26 91 4 109 -8 7 -15 28 -15 47 0 25 -5 36 -17 40 -10 2 -35 34 -56 69
-33 57 -40 78 -51 172 -9 76 -10 166 -4 312 4 113 12 237 17 275 6 39 10 116
10 172 1 56 5 104 10 107 4 3 10 56 13 119 3 70 10 121 19 135 11 18 11 26 1
42 -18 29 -15 87 4 94 14 5 15 27 9 183 -4 98 -11 182 -16 188 -5 5 -9 17 -9
26 0 9 -7 22 -15 29 -8 7 -15 22 -15 34 0 12 -13 35 -30 51 -16 16 -30 33 -30
38 0 19 -115 132 -170 167 -48 31 -141 74 -163 75 -4 0 -24 22 -45 50 -20 27
-58 62 -83 78 -56 34 -134 43 -198 23z m-125 -953 c-9 -207 -35 -717 -40 -783
-2 -30 -2 37 0 150 11 519 17 696 26 706 5 7 8 16 7 20 -3 19 1 54 7 54 4 0 3
-66 0 -147z"/>
<path d="M3821 4286 c-13 -13 -18 -26 -13 -30 5 -3 19 5 31 18 13 13 18 26 13
30 -5 3 -19 -5 -31 -18z"/>
<path d="M2616 3981 c-4 -5 -2 -12 3 -15 5 -4 12 -2 15 3 4 5 2 12 -3 15 -5 4
-12 2 -15 -3z"/>
</g>
</svg>
