<svg xmlns="http://www.w3.org/2000/svg" viewBox="0 0 216 70" role="img" aria-label="Muse">
  <defs>
    <linearGradient id="logoGradient" x1="0%" y1="0%" x2="100%" y2="100%">
      <stop offset="0%" style="stop-color:#F4A785;stop-opacity:1" />
      <stop offset="100%" style="stop-color:#8EC5FF;stop-opacity:1" />
    </linearGradient>
  </defs>
  <path fill="url(#logoGradient)" fill-rule="evenodd" d="M 0.00,58.50 1.50,52.00 4.00,53.50 7.50,50.00 22.50,24.00 21.00,22.50 10.50,30.00 18.00,12.50 27.00,14.50 32.00,10.50 35.00,10.50 37.50,13.00 29.50,18.00 40.00,33.50 60.00,8.50 67.50,7.00 64.50,9.00 69.50,14.00 68.50,20.00 72.50,22.00 71.50,37.00 62.00,44.50 57.50,43.00 61.50,27.00 59.50,22.00 61.50,20.00 58.00,18.50 50.50,30.00 52.50,33.00 45.50,43.00 44.50,54.00 39.00,66.50 36.00,66.50 29.50,62.00 30.00,59.50 35.00,60.50 36.50,58.00 31.00,53.50 28.50,57.00 28.50,35.00 30.50,25.00 29.00,22.50 19.50,41.00 10.50,69.00 0.00,58.50 Z M 143.00,65.50 129.00,64.50 119.00,58.50 118.50,55.00 131.00,53.50 142.00,50.50 146.00,47.50 158.00,46.50 159.50,45.00 158.00,43.50 148.00,43.50 144.00,46.50 138.00,45.50 128.50,40.00 124.00,29.50 120.50,35.00 111.00,64.50 107.00,64.50 103.00,56.50 95.00,63.50 89.00,64.50 83.00,61.50 78.50,54.00 77.50,42.00 78.50,33.00 81.50,32.00 81.50,29.00 90.50,18.00 87.00,13.50 96.50,17.00 90.50,40.00 89.50,51.00 92.00,54.50 98.50,47.00 108.00,29.50 110.00,31.50 124.00,21.50 128.00,27.50 136.00,21.50 160.00,14.50 162.00,12.50 163.50,19.00 162.00,23.50 155.00,20.50 148.00,20.50 141.00,24.50 137.50,29.00 142.00,32.50 156.00,37.50 163.00,46.50 164.50,45.00 165.50,33.00 170.00,23.50 172.00,25.50 182.00,16.50 187.00,14.50 196.00,14.50 196.50,12.00 198.50,12.00 201.50,22.00 197.50,29.00 188.00,39.50 173.50,49.00 176.00,51.50 182.00,50.50 198.00,38.50 203.00,38.50 209.00,35.50 208.50,40.00 194.00,58.50 186.00,63.50 177.00,64.50 168.50,59.00 164.00,50.50 157.00,59.50 143.00,65.50 Z M 181.50,29.00 186.00,27.50 191.50,22.00 187.00,20.50 184.00,22.50 178.50,28.00 181.50,29.00 Z M 68.00,65.50 61.00,63.50 56.50,60.00 56.50,47.00 57.50,51.00 59.00,52.50 61.00,51.50 70.50,44.00 71.00,39.50 69.50,64.00 68.00,65.50 Z M 72.00,22.50 68.50,20.00 69.50,14.00 64.00,7.50 70.00,6.50 72.50,9.00 72.00,22.50 Z M 168.00,30.50 172.50,20.00 178.00,13.50 185.00,10.50 194.00,10.50 198.50,13.00 198.00,14.50 187.00,14.50 182.00,16.50 168.00,30.50 Z M 127.00,28.50 128.50,23.00 140.00,14.50 151.00,11.50 160.00,11.50 161.50,13.00 161.00,14.50 136.00,21.50 127.00,28.50 Z M 40.00,33.50 32.50,21.00 29.50,19.00 36.00,13.50 39.50,16.00 44.50,30.00 40.00,33.50 Z M 80.00,35.50 79.50,30.00 82.50,18.00 87.00,14.50 91.00,16.50 93.00,15.50 82.50,28.00 80.00,35.50 Z M 49.00,36.50 53.50,24.00 58.00,18.50 61.00,18.50 62.50,20.00 55.50,26.00 49.00,36.50 Z M 108.00,32.50 115.00,20.50 119.00,18.50 122.50,20.00 123.00,23.50 108.00,32.50 Z M 2.00,57.50 0.50,57.00 11.50,29.00 23.00,20.50 15.50,38.00 2.00,57.50 Z M 58.00,53.50 57.50,44.00 59.00,42.50 62.00,44.50 71.00,37.50 70.50,44.00 58.00,53.50 Z M 151.00,47.50 146.00,47.50 137.50,44.00 160.00,43.50 160.50,45.00 158.00,46.50 151.00,47.50 Z M 35.00,60.50 29.50,59.00 29.00,51.50 36.00,57.50 39.00,57.50 43.50,54.00 41.00,58.50 35.00,60.50 Z"/>
</svg>
