<svg xmlns="http://www.w3.org/2000/svg" viewBox="0 0 81 63" role="img" aria-label="Muse">
  <path d="M 0.00,51.50 1.50,50.00 1.50,45.00 4.00,46.50 7.50,43.00 22.50,17.00 21.00,15.50 10.50,23.00 18.00,5.50 23.00,5.50 27.00,7.50 32.00,3.50 35.00,3.50 37.50,6.00 29.50,11.00 40.00,26.50 46.50,20.00 54.50,7.00 62.50,0.00 0.00,51.50 Z M 67.50,0.00 64.50,2.00 69.50,7.00 68.50,13.00 71.00,15.50 72.50,15.00 71.50,30.00 62.00,37.50 57.50,36.00 61.50,20.00 61.50,17.00 59.50,15.00 61.50,13.00 58.00,11.50 50.50,23.00 52.50,25.00 51.50,28.00 45.50,36.00 42.50,54.00 39.00,59.50 36.00,59.50 31.00,56.50 29.50,53.00 35.00,53.50 36.50,51.00 31.00,46.50 28.50,50.00 28.50,28.00 30.50,18.00 29.00,15.50 25.50,20.00 19.50,34.00 10.50,62.00 67.50,0.00 Z M 80.00,50.50 77.50,42.00 79.00,25.50 80.00,50.50 Z M 68.00,58.50 61.00,56.50 56.50,53.00 56.50,40.00 57.50,44.00 59.00,45.50 61.00,44.50 70.50,37.00 71.00,32.50 69.50,57.00 68.00,58.50 Z M 70.50,0.00 72.50,2.00 72.00,15.50 68.50,13.00 69.50,7.00 63.50,1.00 70.50,0.00 Z M 40.00,26.50 38.50,26.00 32.50,14.00 29.50,12.00 36.00,6.50 39.50,9.00 44.50,23.00 40.00,26.50 Z M 49.00,29.50 53.50,17.00 58.00,11.50 61.00,11.50 62.50,13.00 55.50,19.00 49.00,29.50 Z M 2.00,50.50 0.50,50.00 11.50,22.00 18.00,18.50 23.00,13.50 23.50,15.00 15.50,31.00 2.00,50.50 Z M 58.00,46.50 57.50,37.00 59.00,35.50 62.00,37.50 68.00,31.50 71.00,30.50 70.50,37.00 58.00,46.50 Z M 35.00,53.50 31.00,53.50 29.50,52.00 29.00,44.50 36.00,50.50 39.00,50.50 43.50,47.00 41.00,51.50 35.00,53.50 Z" fill="currentColor" fill-rule="evenodd"/>
</svg>